# xmcd
#
# Track frame offsets: 
#        150
#        11439
#        24354
#        36832
#        47254
#        56421
#        65877
#        76628
#        84435
#        99429
#        111552
#        123438
#        137491
#        150668
#        163560
#        177833
#        190816
#        204800
#        217502
#        228559
#
# Disc length: 3234 seconds
#
# Revision: 1
# Processed by: cddbd v1.5.2PL0 Copyright (c) Steve Scherf et al.
# Submitted via: ExactAudioCopyFreeDBPlugin 1.0
#
DISCID=f00ca014
DTITLE=Snooks Eaglin, Sleepy John Estes - ABC Of The Blues - Vol. 10 E
DTITLE=aglin, Estes
DYEAR=2010
DGENRE=Blues
TTITLE0=Snooks Eaglin - Careless Love
TTITLE1=Snooks Eaglin - Let Me Go Home, Whisky
TTITLE2=Snooks Eaglin - Trouble In Mind
TTITLE3=Snooks Eaglin - St. James Infirmary
TTITLE4=Snooks Eaglin - Rock Island Line
TTITLE5=Snooks Eaglin - Sophisticated Blues
TTITLE6=Snooks Eaglin - I'm Looking For A Woman
TTITLE7=Snooks Eaglin - Look Down That Lonesome Road
TTITLE8=Snooks Eaglin - I Got A Questionnaire
TTITLE9=Snooks Eaglin - One Scotch, One Bourbon, One Beer
TTITLE10=Sleepy John Estes - Jack And Jill Blues
TTITLE11=Sleepy John Estes - Poor Man's Friend
TTITLE12=Sleepy John Estes - Hobo Jungle Blues
TTITLE13=Sleepy John Estes - Airplane Blues
TTITLE14=Sleepy John Estes - Floating Bridge
TTITLE15=Sleepy John Estes - Need More Blues
TTITLE16=Sleepy John Estes - Fire Department Blues
TTITLE17=Sleepy John Estes - New Someday Baby
TTITLE18=Sleepy John Estes - Liquor Store Blues
TTITLE19=Sleepy John Estes - Brownsville Blues
EXTD=
EXTT0=
EXTT1=
EXTT2=
EXTT3=
EXTT4=
EXTT5=
EXTT6=
EXTT7=
EXTT8=
EXTT9=
EXTT10=
EXTT11=
EXTT12=
EXTT13=
EXTT14=
EXTT15=
EXTT16=
EXTT17=
EXTT18=
EXTT19=
PLAYORDER=
